{
    "asset" : {
        "generator" : "Khronos glTF Blender I/O v1.0.5",
        "version" : "2.0"
    },
    "scene" : 0,
    "scenes" : [
        {
            "name" : "Scene",
            "nodes" : [
                0,
                1
            ]
        }
    ],
    "nodes" : [
        {
            "name" : "Light",
            "rotation" : [
                0.16907575726509094,
                0.7558803558349609,
                -0.27217137813568115,
                0.570947527885437
            ],
            "translation" : [
                -0.016597062349319458,
                4.735755920410156,
                3.8752472400665283
            ]
        },
        {
            "mesh" : 0,
            "name" : "node_MeshObject-898641600-PolyPaper13",
            "rotation" : [
                0.7071068286895752,
                0,
                0,
                0.7071067094802856
            ],
            "scale" : [
                0.75,
                0.75,
                0.75
            ]
        }
    ],
    "materials" : [
        {
            "name" : "BlocksPaper_COLOR_0",
            "pbrMetallicRoughness" : {
                "metallicFactor" : 0,
                "roughnessFactor" : 0.6000000238418579
            }
        }
    ],
    "meshes" : [
        {
            "name" : "mesh_m0-PolyPaper13_-22986",
            "primitives" : [
                {
                    "attributes" : {
                        "POSITION" : 0,
                        "NORMAL" : 1,
                        "COLOR_0" : 2
                    },
                    "indices" : 3,
                    "material" : 0
                }
            ]
        }
    ],
    "accessors" : [
        {
            "bufferView" : 0,
            "componentType" : 5126,
            "count" : 2196,
            "max" : [
                1.764433741569519,
                1.8921394348144531,
                -0.01144552230834961
            ],
            "min" : [
                -0.7481573820114136,
                -1.0327811241149902,
                -3.894411087036133
            ],
            "type" : "VEC3"
        },
        {
            "bufferView" : 1,
            "componentType" : 5126,
            "count" : 2196,
            "type" : "VEC3"
        },
        {
            "bufferView" : 2,
            "componentType" : 5126,
            "count" : 2196,
            "type" : "VEC4"
        },
        {
            "bufferView" : 3,
            "componentType" : 5123,
            "count" : 2196,
            "type" : "SCALAR"
        }
    ],
    "bufferViews" : [
        {
            "buffer" : 0,
            "byteLength" : 26352,
            "byteOffset" : 0
        },
        {
            "buffer" : 0,
            "byteLength" : 26352,
            "byteOffset" : 26352
        },
        {
            "buffer" : 0,
            "byteLength" : 35136,
            "byteOffset" : 52704
        },
        {
            "buffer" : 0,
            "byteLength" : 4392,
            "byteOffset" : 87840
        }
    ],
    "buffers" : [
        {
            "byteLength" : 92232,
            "uri" : "data:application/octet-stream;base64,"
        }
    ]
}
